<?xml version="1.0" standalone="no"?>
<!DOCTYPE svg PUBLIC "-//W3C//DTD SVG 20010904//EN"
 "http://www.w3.org/TR/2001/REC-SVG-20010904/DTD/svg10.dtd">
<svg version="1.0" xmlns="http://www.w3.org/2000/svg"
 width="225.000000pt" height="225.000000pt" viewBox="0 0 225.000000 225.000000"
 preserveAspectRatio="xMidYMid meet">

<g transform="translate(0.000000,225.000000) scale(0.100000,-0.100000)"
fill="#000000" stroke="none">
<path d="M376 2215 c-93 -33 -137 -97 -144 -212 l-5 -73 -53 0 c-75 0 -107
-36 -66 -73 12 -11 36 -17 70 -17 l52 0 0 -145 0 -145 -58 0 c-59 0 -82 -11
-82 -40 0 -31 34 -50 88 -50 l52 0 0 -150 0 -149 -61 -3 c-45 -2 -65 -8 -72
-20 -19 -30 8 -48 74 -48 l59 0 0 -150 0 -150 -53 0 c-40 0 -58 -5 -70 -18
-39 -43 -10 -72 72 -72 l51 0 0 -145 0 -145 -54 0 c-36 0 -60 -5 -70 -16 -39
-38 -5 -74 68 -74 l53 0 5 -73 c8 -118 60 -190 157 -217 45 -12 1370 -13 1424
-1 49 12 98 45 128 89 24 35 24 37 27 343 l3 307 57 37 c31 21 74 51 95 68 35
27 37 32 31 66 -4 20 -23 60 -43 89 -27 39 -45 55 -75 64 -33 10 -40 10 -51
-5 -7 -9 -14 -17 -16 -17 -2 0 -4 231 -4 513 l0 513 -24 36 c-30 44 -79 77
-128 89 -21 5 -344 8 -718 8 -558 0 -687 -2 -719 -14z m224 -1090 l0 -1015
-100 0 c-100 0 -100 0 -137 34 -35 32 -37 38 -41 105 -4 70 -4 71 20 71 14 0
40 -7 58 -16 29 -15 35 -15 65 -1 63 30 53 117 -14 132 -21 4 -38 1 -53 -9
-12 -9 -35 -16 -50 -16 l-28 0 0 145 0 145 24 0 c13 0 38 -8 54 -17 39 -22 81
-9 101 31 18 39 5 77 -34 95 -26 12 -33 12 -58 -2 -16 -10 -42 -17 -58 -17
l-29 0 0 145 c0 167 3 172 75 136 41 -20 46 -21 74 -7 53 28 52 98 -2 121 -33
14 -52 11 -78 -12 -9 -7 -27 -12 -40 -10 -24 4 -24 4 -27 150 l-3 147 31 0
c17 0 41 -7 53 -15 49 -31 114 17 102 75 -7 29 -40 60 -64 60 -9 0 -29 -7 -45
-15 -15 -8 -39 -15 -52 -15 l-24 0 0 145 0 145 25 0 c14 0 37 -7 50 -16 16
-11 34 -14 55 -9 68 15 78 102 15 132 -30 14 -36 14 -65 -1 -18 -9 -44 -16
-58 -16 -24 0 -24 1 -20 71 4 67 6 73 41 105 37 34 37 34 137 34 l100 0 0
-1015z m1231 998 c59 -35 59 -32 59 -591 l0 -510 -147 -104 c-82 -57 -232
-164 -335 -236 l-187 -133 22 -23 c12 -12 34 -31 49 -40 15 -10 30 -28 33 -39
6 -20 36 -97 41 -105 2 -3 135 89 315 217 20 14 71 50 113 80 42 29 76 57 76
62 0 5 5 9 10 9 8 0 10 -85 8 -266 l-3 -266 -37 -34 -38 -34 -585 0 -585 0 0
1015 0 1015 581 0 c530 0 583 -2 610 -17z"/>
<path d="M935 1785 c-22 -24 -45 -44 -51 -45 -5 0 -23 14 -39 30 -32 34 -68
37 -73 6 -3 -11 12 -35 40 -63 71 -73 69 -73 149 3 75 73 87 107 39 112 -19 2
-35 -9 -65 -43z"/>
<path d="M1118 1779 c-24 -13 -23 -56 1 -69 12 -6 129 -10 310 -10 250 0 292
2 305 16 21 20 20 37 -2 57 -16 15 -52 17 -308 17 -178 0 -296 -5 -306 -11z"/>
<path d="M932 1428 c-46 -46 -54 -51 -63 -36 -5 9 -23 27 -40 38 -24 18 -33
19 -44 10 -8 -7 -15 -20 -15 -29 0 -21 90 -111 112 -111 8 0 46 29 82 65 51
48 67 70 64 87 -6 41 -39 33 -96 -24z"/>
<path d="M1118 1419 c-24 -13 -23 -56 1 -69 12 -6 129 -10 310 -10 250 0 292
2 305 16 20 19 20 24 0 52 -15 22 -17 22 -307 22 -180 0 -299 -5 -309 -11z"/>
<path d="M935 1070 l-49 -50 -37 36 c-28 27 -42 34 -58 29 -12 -3 -21 -14 -21
-23 0 -20 95 -122 113 -122 23 0 149 136 145 156 -7 36 -41 27 -93 -26z"/>
<path d="M1112 1058 c-16 -16 -15 -43 2 -57 9 -8 91 -11 276 -9 238 3 264 5
274 21 8 12 8 22 0 35 -10 15 -36 17 -275 20 -198 2 -268 -1 -277 -10z"/>
<path d="M1082 349 c-23 -38 -42 -75 -42 -81 0 -7 14 -8 38 -4 100 17 133 23
138 29 16 16 -54 127 -79 127 -7 0 -31 -32 -55 -71z"/>
</g>
</svg>
